<svg width="291" height="182" viewBox="0 0 291 182" fill="none" xmlns="http://www.w3.org/2000/svg">
<path d="M3.31034 168.258H2.56083C2.56083 165.842 3.72673 159.451 6.05854 149.083C8.39035 138.714 9.55626 132.989 9.55626 131.906C9.55626 130.157 8.91085 128.492 7.62002 126.91L6.99543 126.098L7.18281 124.848C9.63954 124.016 14.1366 123.599 20.674 123.599C21.3402 125.098 21.6942 126.868 21.7358 128.908C26.6076 125.327 30.7716 123.537 34.2276 123.537C38.1834 123.537 40.536 125.244 41.2855 128.658C45.9908 125.244 50.0923 123.537 53.59 123.537C55.9635 123.537 57.8997 124.203 59.3987 125.535C60.8977 126.826 61.6472 128.721 61.6472 131.219C61.6472 133.676 60.7312 138.381 58.899 145.335C57.1085 152.247 56.2133 157.161 56.2133 160.075C56.2133 161.158 56.4423 161.699 56.9003 161.699C57.7748 161.699 58.8366 161.45 60.0858 160.95L61.3974 164.51C57.5249 167.258 53.6941 168.632 49.9049 168.632C48.1144 168.632 46.6779 168.091 45.5952 167.008C44.5126 165.926 43.9713 164.343 43.9713 162.261C43.9713 160.138 44.8249 155.558 46.5321 148.52C48.281 141.442 49.1554 137.132 49.1554 135.591C49.1554 134.051 48.968 133.031 48.5933 132.531C48.2185 131.99 47.4898 131.719 46.4072 131.719C45.3246 131.719 43.6173 132.51 41.2855 134.092C40.9941 136.008 40.3487 139.11 39.3493 143.399C36.726 154.35 35.4144 162.116 35.4144 166.696C33.374 167.779 29.8555 168.32 24.8588 168.32H23.1724C23.1724 164.489 24.1509 158.493 26.108 150.332C28.065 142.17 29.0435 137.278 29.0435 135.654C29.0435 134.03 28.8562 132.968 28.4814 132.468C28.1483 131.969 27.4196 131.719 26.2953 131.719C25.2127 131.719 23.4847 132.531 21.1112 134.155C20.7365 136.237 19.9661 139.693 18.8002 144.523C16.0937 155.807 14.7404 163.178 14.7404 166.634C12.9082 167.716 9.09822 168.258 3.31034 168.258ZM63.5254 156.578C63.5254 151.414 65.0869 147.396 68.2098 144.523C71.3744 141.65 75.2677 140.213 79.8897 140.213C83.096 140.213 85.6568 140.921 87.5722 142.337C89.5293 143.711 90.5078 145.564 90.5078 147.896C90.5078 149.603 89.9873 151.123 88.9463 152.455C87.9053 153.788 86.6353 154.808 85.1363 155.516C81.9717 156.932 79.2235 157.785 76.8917 158.077L75.3302 158.264C75.7882 161.012 77.1623 162.386 79.4525 162.386C80.4519 162.386 81.5553 162.178 82.7628 161.762C83.9704 161.304 84.9281 160.846 85.636 160.388L86.6978 159.763L88.6965 162.449C88.6965 162.449 88.4675 162.678 88.0094 163.136C87.7596 163.386 87.1558 163.885 86.1981 164.635C85.282 165.343 84.3035 165.967 83.2625 166.509C82.2632 167.05 80.9723 167.529 79.39 167.945C77.8077 168.403 76.2254 168.632 74.6431 168.632C71.1038 168.632 68.3556 167.612 66.3985 165.572C64.4831 163.49 63.5254 160.492 63.5254 156.578ZM75.0804 154.142C76.2879 153.975 77.4955 152.997 78.703 151.206C79.9105 149.374 80.5143 147.854 80.5143 146.647C80.5143 145.397 80.1604 144.773 79.4525 144.773C78.4115 144.773 77.4538 145.585 76.5794 147.209C75.705 148.833 75.2053 151.144 75.0804 154.142ZM90.7293 156.578C90.7293 151.414 92.2908 147.396 95.4138 144.523C98.5784 141.65 102.472 140.213 107.094 140.213C110.3 140.213 112.861 140.921 114.776 142.337C116.733 143.711 117.712 145.564 117.712 147.896C117.712 149.603 117.191 151.123 116.15 152.455C115.109 153.788 113.839 154.808 112.34 155.516C109.176 156.932 106.427 157.785 104.096 158.077L102.534 158.264C102.992 161.012 104.366 162.386 106.656 162.386C107.656 162.386 108.759 162.178 109.967 161.762C111.174 161.304 112.132 160.846 112.84 160.388L113.902 159.763L115.9 162.449C115.9 162.449 115.671 162.678 115.213 163.136C114.963 163.386 114.36 163.885 113.402 164.635C112.486 165.343 111.507 165.967 110.466 166.509C109.467 167.05 108.176 167.529 106.594 167.945C105.012 168.403 103.429 168.632 101.847 168.632C98.3077 168.632 95.5595 167.612 93.6024 165.572C91.687 163.49 90.7293 160.492 90.7293 156.578ZM102.284 154.142C103.492 153.975 104.699 152.997 105.907 151.206C107.114 149.374 107.718 147.854 107.718 146.647C107.718 145.397 107.364 144.773 106.656 144.773C105.615 144.773 104.658 145.585 103.783 147.209C102.909 148.833 102.409 151.144 102.284 154.142ZM139.919 145.772L134.547 145.335C132.882 152.789 131.966 157.119 131.799 158.327C131.674 159.534 131.612 160.533 131.612 161.325C131.612 162.074 131.862 162.449 132.361 162.449C132.944 162.449 134.048 162.074 135.672 161.325L137.171 164.323C135.838 165.53 134.152 166.55 132.111 167.383C130.071 168.216 128.093 168.632 126.178 168.632C124.304 168.632 122.805 168.153 121.681 167.196C120.557 166.196 119.994 164.801 119.994 163.011C119.994 161.22 120.515 158.347 121.556 154.392C122.597 150.436 123.284 147.5 123.617 145.585C122.618 145.668 121.139 145.814 119.182 146.022C119.016 145.148 118.933 144.336 118.933 143.586C118.933 142.795 119.037 141.921 119.245 140.963H124.242C124.283 140.422 124.304 138.61 124.304 135.529L124.179 132.968C128.218 131.636 132.07 130.969 135.734 130.969C136.026 131.636 136.171 132.802 136.171 134.467C136.171 136.091 135.901 138.256 135.359 140.963H140.981C140.981 142.67 140.627 144.273 139.919 145.772ZM167.332 156.453C167.332 159.909 165.666 162.803 162.335 165.135C159.045 167.466 155.215 168.632 150.842 168.632C147.428 168.632 144.534 167.904 142.161 166.446C139.829 164.989 138.663 163.594 138.663 162.261C139.329 160.638 140.599 158.889 142.473 157.015C144.347 155.141 146.075 154.163 147.657 154.079C148.698 154.537 149.656 155.682 150.53 157.515C151.446 159.305 152.175 161.387 152.716 163.761C154.965 163.677 156.089 162.407 156.089 159.95C156.089 158.327 155.464 156.349 154.215 154.017C153.008 151.643 151.675 149.437 150.218 147.396C148.76 145.356 147.407 143.087 146.158 140.588C144.95 138.09 144.347 135.904 144.347 134.03C144.347 130.949 145.762 128.429 148.594 126.472C151.425 124.515 154.569 123.537 158.025 123.537C161.523 123.537 164.229 124.286 166.145 125.785C168.102 127.284 169.08 129.012 169.08 130.969C169.08 132.593 168.747 133.905 168.081 134.904C167.415 135.862 166.874 136.612 166.457 137.153C166.082 137.653 165.562 138.194 164.896 138.777C163.647 139.859 162.689 140.651 162.023 141.15L161.086 141.837C163.542 144.877 165.395 148.416 166.645 152.455C167.103 153.913 167.332 155.245 167.332 156.453ZM164.084 131.407C164.084 129.45 162.835 128.471 160.336 128.471C158.879 128.471 157.692 128.783 156.776 129.408C155.902 130.033 155.464 130.824 155.464 131.781C155.464 132.697 155.839 133.822 156.589 135.154C157.38 136.487 158.004 137.424 158.462 137.965C159.462 137.465 160.648 136.549 162.023 135.217C163.397 133.884 164.084 132.614 164.084 131.407ZM192.741 145.772L187.369 145.335C185.704 152.789 184.788 157.119 184.621 158.327C184.496 159.534 184.434 160.533 184.434 161.325C184.434 162.074 184.684 162.449 185.183 162.449C185.766 162.449 186.87 162.074 188.494 161.325L189.993 164.323C188.66 165.53 186.974 166.55 184.933 167.383C182.893 168.216 180.915 168.632 179 168.632C177.126 168.632 175.627 168.153 174.503 167.196C173.378 166.196 172.816 164.801 172.816 163.011C172.816 161.22 173.337 158.347 174.378 154.392C175.419 150.436 176.106 147.5 176.439 145.585C175.44 145.668 173.961 145.814 172.004 146.022C171.838 145.148 171.755 144.336 171.755 143.586C171.755 142.795 171.859 141.921 172.067 140.963H177.064C177.105 140.422 177.126 138.61 177.126 135.529L177.001 132.968C181.04 131.636 184.892 130.969 188.556 130.969C188.848 131.636 188.993 132.802 188.993 134.467C188.993 136.091 188.723 138.256 188.181 140.963H193.803C193.803 142.67 193.449 144.273 192.741 145.772ZM193.284 162.824C193.284 161.075 193.826 158.202 194.908 154.204C196.033 150.207 196.595 147.75 196.595 146.834C196.595 145.918 195.845 144.586 194.346 142.837L194.471 141.9C198.26 141.067 202.695 140.651 207.775 140.651C208.108 141.358 208.275 142.483 208.275 144.023C208.275 145.564 207.692 148.479 206.526 152.768C205.402 157.057 204.839 159.597 204.839 160.388C204.839 161.47 205.36 162.012 206.401 162.012C207.109 162.012 208.004 161.741 209.087 161.2C209.212 160.533 209.586 158.785 210.211 155.953C211.668 149.666 212.397 144.96 212.397 141.837C214.312 141.005 217.581 140.588 222.203 140.588H223.889C223.889 142.462 223.327 146.126 222.203 151.581C221.12 157.036 220.558 160.18 220.517 161.012C220.517 161.845 220.704 162.261 221.079 162.261L224.139 161.45L225.264 164.572C224.056 165.53 222.307 166.446 220.017 167.321C217.727 168.195 215.707 168.632 213.958 168.632C211.377 168.632 209.774 167.591 209.149 165.509C205.693 167.591 202.383 168.632 199.218 168.632C195.262 168.632 193.284 166.696 193.284 162.824ZM248.498 168.632C245.916 168.632 244.251 167.633 243.501 165.634C240.337 167.633 237.505 168.632 235.007 168.632C232.55 168.632 230.551 167.8 229.011 166.134C227.512 164.427 226.762 161.679 226.762 157.889C226.762 152.934 228.011 148.749 230.51 145.335C233.05 141.921 236.318 140.213 240.316 140.213C242.273 140.213 244.23 140.671 246.187 141.587C247.728 134.55 248.498 129.491 248.498 126.41C248.498 125.494 248.435 124.578 248.31 123.662C252.183 122.579 255.91 122.038 259.491 122.038C259.824 122.579 259.99 123.87 259.99 125.91C259.99 127.909 259.033 133.322 257.117 142.15C255.243 150.977 254.307 156.89 254.307 159.888C254.307 161.47 254.577 162.261 255.119 162.261L257.804 161.387L258.929 164.572C255.264 167.279 251.787 168.632 248.498 168.632ZM240.316 162.324C241.065 162.324 241.898 162.074 242.814 161.574V161.512C242.981 158.139 243.793 152.83 245.25 145.585C244.417 145.335 243.813 145.21 243.439 145.21C242.564 145.21 241.794 145.647 241.128 146.522C240.461 147.396 239.941 148.52 239.566 149.895C238.858 152.726 238.504 155.516 238.504 158.264C238.504 160.971 239.108 162.324 240.316 162.324ZM289.97 140.651H290.47C290.262 141.733 289.908 144.065 289.408 147.646C288.284 155.807 287.076 161.97 285.786 166.134C282.579 176.627 277.437 181.874 270.358 181.874C268.234 181.874 266.506 181.416 265.174 180.5C263.883 179.625 263.238 178.459 263.238 177.002C263.238 175.586 263.571 174.399 264.237 173.442C264.945 172.526 265.944 171.755 267.235 171.131C269.442 170.048 272.149 169.153 275.355 168.445C275.688 166.863 275.896 165.842 275.979 165.384C272.732 167.133 269.65 168.008 266.735 168.008C262.738 168.008 260.739 166.051 260.739 162.137C260.739 160.762 261.197 158.077 262.113 154.079C263.03 150.04 263.488 147.25 263.488 145.71C263.488 144.169 263.383 143.024 263.175 142.275C268.089 141.234 271.899 140.713 274.605 140.713C274.938 141.213 275.105 142.212 275.105 143.711C275.105 145.168 274.626 148.021 273.668 152.268C272.752 156.515 272.294 159.014 272.294 159.763C272.294 161.054 272.919 161.699 274.168 161.699C274.876 161.699 275.688 161.512 276.604 161.137C276.937 159.014 277.395 155.787 277.978 151.456C278.603 147.084 279.04 144.086 279.29 142.462C280.372 141.962 281.996 141.546 284.162 141.213C286.368 140.838 288.305 140.651 289.97 140.651ZM267.672 175.815C267.672 176.773 268.297 177.252 269.546 177.252C270.171 177.252 270.983 176.814 271.982 175.94C273.023 175.107 273.856 173.858 274.48 172.192C269.942 172.984 267.672 174.191 267.672 175.815Z" fill="#3D3D3D"/>
<circle cx="208.046" cy="43.9" r="40.6907" fill="#FDFAF7" stroke="#FDFAF7" stroke-width="2.52804"/>
<circle cx="206.095" cy="41.9548" r="40.6907" fill="#51C332" stroke="#FDFAF7" stroke-width="2.52804"/>
<ellipse cx="194.741" cy="35.6116" rx="3.2769" ry="7.31769" fill="white"/>
<ellipse cx="217.319" cy="35.6116" rx="3.41492" ry="7.31769" fill="white"/>
<circle cx="151.208" cy="43.9" r="40.6907" fill="#FDFAF7" stroke="#FDFAF7" stroke-width="2.52804"/>
<circle cx="149.257" cy="41.9548" r="40.6907" fill="#51C332" stroke="#FDFAF7" stroke-width="2.52804"/>
<ellipse cx="137.904" cy="35.6116" rx="3.2769" ry="7.31769" fill="white"/>
<ellipse cx="160.482" cy="35.6116" rx="3.41492" ry="7.31769" fill="white"/>
<circle cx="99.0153" cy="43.9" r="40.6907" fill="#FDFAF7" stroke="#FDFAF7" stroke-width="2.52804"/>
<circle cx="97.0641" cy="41.9548" r="40.6907" fill="#51C332" stroke="#FDFAF7" stroke-width="2.52804"/>
<ellipse cx="85.7095" cy="35.6116" rx="3.2769" ry="7.31769" fill="white"/>
<ellipse cx="108.288" cy="35.6116" rx="3.41492" ry="7.31769" fill="white"/>
</svg>
